<?xml version="1.0" encoding="UTF-8"?>
<svg id="Layer_2" data-name="Layer 2" xmlns="http://www.w3.org/2000/svg" xmlns:xlink="http://www.w3.org/1999/xlink" viewBox="0 0 525 525">
  <defs>
    <style>
      .cls-1 {
        fill: url(#linear-gradient);
      }

      .cls-1, .cls-2, .cls-3, .cls-4, .cls-5, .cls-6, .cls-7 {
        stroke-width: 0px;
      }

      .cls-2 {
        fill: #00a8e9;
      }

      .cls-3 {
        fill: #181622;
      }

      .cls-4 {
        opacity: .2;
      }

      .cls-5 {
        fill: #161428;
      }

      .cls-6 {
        fill: url(#radial-gradient);
      }

      .cls-7 {
        fill: url(#Steel_Radial);
      }

      .cls-8 {
        fill: #fff;
        font-family: Rockwell, Rockwell;
        font-size: 30px;
        letter-spacing: -.02em;
      }
    </style>
    <radialGradient id="radial-gradient" cx="262.53" cy="262.52" fx="262.53" fy="262.52" r="250" gradientTransform="translate(-.03 -.02)" gradientUnits="userSpaceOnUse">
      <stop offset=".1" stop-color="#22202c" stop-opacity="0"/>
      <stop offset="1" stop-color="#04020e"/>
    </radialGradient>
    <radialGradient id="Steel_Radial" data-name="Steel Radial" cx="262.5" cy="262.5" fx="262.5" fy="262.5" r="247.5" gradientUnits="userSpaceOnUse">
      <stop offset="0" stop-color="#e5e2df"/>
      <stop offset="0" stop-color="#f1efed"/>
      <stop offset="0" stop-color="#fff"/>
      <stop offset=".13" stop-color="#f0f0f0"/>
      <stop offset=".37" stop-color="#c9cacb"/>
      <stop offset=".52" stop-color="#adaeb0"/>
      <stop offset=".6" stop-color="#a3a5a7"/>
      <stop offset=".74" stop-color="#898d8f"/>
      <stop offset=".91" stop-color="#5e6669"/>
      <stop offset="1" stop-color="#465053"/>
    </radialGradient>
    <linearGradient id="linear-gradient" x1="262.5" y1="525" x2="262.5" y2="0" gradientUnits="userSpaceOnUse">
      <stop offset="0" stop-color="#e5e2df"/>
      <stop offset="0" stop-color="#d6d6d6"/>
      <stop offset="0" stop-color="#d1d3d4"/>
      <stop offset=".09" stop-color="#b6b7b8"/>
      <stop offset=".18" stop-color="#999"/>
      <stop offset=".26" stop-color="#adaeae"/>
      <stop offset=".36" stop-color="#d1d3d4"/>
      <stop offset=".51" stop-color="#858688"/>
      <stop offset=".6" stop-color="#58595b"/>
      <stop offset=".64" stop-color="#636466"/>
      <stop offset=".76" stop-color="#808285"/>
      <stop offset=".78" stop-color="#a1a3a5"/>
      <stop offset=".8" stop-color="#c3c4c5"/>
      <stop offset=".83" stop-color="#dddede"/>
      <stop offset=".85" stop-color="#f0f0f0"/>
      <stop offset=".87" stop-color="#fbfbfb"/>
      <stop offset=".9" stop-color="#fff"/>
      <stop offset=".91" stop-color="#eaeaeb"/>
      <stop offset=".93" stop-color="#d0d1d3"/>
      <stop offset=".96" stop-color="#bdbfc1"/>
      <stop offset=".98" stop-color="#b2b4b7"/>
      <stop offset="1" stop-color="#afb1b4"/>
    </linearGradient>
  </defs>
  <g id="Speedometer">
    <g id="Text">
      <g id="Face_front_w_glow" data-name="Face front w/glow">
        <circle class="cls-5" cx="262.5" cy="262.5" r="250"/>
        <circle class="cls-4" cx="262.5" cy="262.5" r="250"/>
      </g>
      <circle id="Face_inner_shade" data-name="Face inner shade" class="cls-6" cx="262.5" cy="262.5" r="250"/>
      <g id="Gauge_bezel_inner_" data-name="Gauge bezel (inner)">
        <path class="cls-7" d="m262.5,20c133.93,0,242.5,108.57,242.5,242.5,0,133.93-108.57,242.5-242.5,242.5-133.93,0-242.5-108.57-242.5-242.5,0-133.93,108.57-242.5,242.5-242.5m0-5s0,0,0,0c0,0,0,0,0,0h0c-33.41,0-65.82,6.55-96.34,19.45-29.47,12.47-55.94,30.31-78.67,53.04-22.73,22.73-40.57,49.2-53.04,78.67-12.91,30.52-19.45,62.93-19.45,96.34s6.55,65.82,19.45,96.34c12.47,29.47,30.31,55.94,53.04,78.67,22.73,22.73,49.2,40.57,78.67,53.04,30.51,12.91,62.93,19.45,96.33,19.45h0s0,0,0,0c33.41,0,65.82-6.54,96.34-19.45,29.47-12.47,55.94-30.31,78.67-53.04s40.57-49.2,53.04-78.67c12.91-30.52,19.45-62.93,19.45-96.34s-6.55-65.82-19.45-96.34c-12.47-29.47-30.31-55.94-53.04-78.67-22.73-22.73-49.2-40.57-78.67-53.04-30.51-12.91-62.93-19.45-96.33-19.45h0Z"/>
      </g>
      <g id="Gauge_bezel_outer_" data-name="Gauge bezel (outer)">
        <path class="cls-1" d="m262.5,15c136.69,0,247.5,110.81,247.5,247.5,0,136.69-110.81,247.5-247.5,247.5-136.69,0-247.5-110.81-247.5-247.5,0-136.69,110.81-247.5,247.5-247.5m0-15s0,0,0,0c0,0,0,0,0,0h0c-35.43,0-69.81,6.94-102.18,20.63-31.26,13.22-59.33,32.15-83.43,56.25-24.1,24.1-43.03,52.17-56.25,83.43C6.94,192.69,0,227.07,0,262.5s6.94,69.81,20.64,102.18c13.22,31.26,32.15,59.33,56.25,83.43,24.1,24.1,52.17,43.03,83.43,56.25,32.37,13.69,66.75,20.64,102.17,20.64h0s0,0,0,0c35.43,0,69.81-6.94,102.18-20.63,31.26-13.22,59.33-32.15,83.43-56.25,24.1-24.1,43.03-52.17,56.25-83.43,13.69-32.37,20.63-66.75,20.63-102.18s-6.94-69.81-20.64-102.18c-13.22-31.26-32.15-59.33-56.25-83.43-24.1-24.1-52.17-43.03-83.43-56.25C332.31,6.94,297.93,0,262.5,0h0Z"/>
      </g>
      <path id="Minor_ticks" data-name="Minor ticks" class="cls-2" d="m220.11,31.34l-4.91.95,4.2,21.6,4.91-.95-4.2-21.6Zm-85.23,33.82l-4.17,2.76,12.14,18.35,4.17-2.76-12.14-18.35Zm-65.81,63.86l-2.8,4.15,18.24,12.3,2.8-4.15-18.24-12.3Zm371.41,250.52l-2.8,4.15,18.24,12.3,2.8-4.15-18.24-12.3ZM32.72,213.2l-1,4.9,21.56,4.39,1-4.9-21.56-4.39Zm439.01,89.32l-1,4.9,21.56,4.39,1-4.9-21.56-4.39Zm-440,4.39l1,4.9,21.56-4.39-1-4.9-21.56,4.39Zm439.01-89.32l1,4.9,21.56-4.39-1-4.9-21.56,4.39ZM65.16,390.12l2.76,4.17,18.35-12.14-2.76-4.17-18.35,12.14Zm373.58-247.27l2.76,4.17,18.35-12.14-2.76-4.17-18.35,12.14Zm-60.76-59.35l4.17,2.76,12.14-18.35-4.17-2.76-12.14,18.35Zm-77.29-30.57l4.91.95,4.2-21.6-4.91-.95-4.2,21.6Zm-35.69-25.44h-5s0,22,0,22h5s0-22,0-22Z"/>
      <path id="Major_ticks" data-name="Major ticks" class="cls-2" d="m350.65,38.97l7.39,3.06-16.22,39.15-7.39-3.06,16.22-39.15ZM89.97,429.11l5.66,5.66,29.96-29.96-5.66-5.66-29.96,29.96ZM399.41,119.66l5.66,5.66,29.96-29.96-5.66-5.66-29.96,29.96ZM39.24,350.38l3.06,7.39,39.15-16.22-3.06-7.39-39.15,16.22Zm404.31-167.47l3.06,7.39,39.15-16.22-3.06-7.39-39.15,16.22ZM22.5,258.23v8s42.37,0,42.37,0v-8s-42.37,0-42.37,0Zm437.63,0v8s42.37,0,42.37,0v-8s-42.37,0-42.37,0ZM42.3,166.69l-3.06,7.39,39.15,16.22,3.06-7.39-39.15-16.22Zm404.31,167.47l-3.06,7.39,39.15,16.22,3.06-7.39-39.15-16.22ZM95.62,89.7l-5.66,5.66,29.96,29.96,5.66-5.66-29.96-29.96Zm309.45,309.45l-5.66,5.66,29.96,29.96,5.66-5.66-29.96-29.96ZM174.35,38.97l-7.39,3.06,16.22,39.15,7.39-3.06-16.22-39.15Zm92.15-16.74h-8s0,42.37,0,42.37h8s0-42.37,0-42.37Z"/>
      <g id="Ring">
        <path class="cls-2" d="m38.42,348.55c-9.76-25.36-15.17-52.44-15.85-80.32h5c.68,27.21,5.96,53.65,15.47,78.41l-4.62,1.92Zm53.72,75.55c-18.76-19.72-33.72-42.15-44.5-66.38l-4.62,1.92c11.03,24.83,26.35,47.81,45.59,68l3.54-3.54ZM165.09,42.75c-24.83,11.03-47.81,26.35-68,45.59l3.54,3.54c19.72-18.76,42.15-33.72,66.38-44.5l-1.92-4.62Zm-117.45,123.99c10.78-24.23,25.74-46.66,44.5-66.38l-3.54-3.54c-19.23,20.19-34.56,43.17-45.59,68l4.62,1.92ZM256.5,22.31c-27.88.68-54.96,6.09-80.32,15.85l1.92,4.62c24.76-9.51,51.19-14.8,78.41-15.47v-5ZM27.58,256.23c.68-27.21,5.96-53.64,15.47-78.41l-4.62-1.92c-9.76,25.36-15.17,52.44-15.85,80.32h5Zm469.85,12c-.68,27.21-5.96,53.65-15.47,78.41l4.62,1.92c9.76-25.36,15.17-52.44,15.85-80.32h-5Zm-20.06,89.49c-10.78,24.24-25.74,46.66-44.5,66.38l3.54,3.54c19.23-20.19,34.56-43.17,45.59-68l-4.62-1.92Zm4.59-179.9c9.51,24.76,14.8,51.19,15.47,78.41h5c-.68-27.88-6.09-54.96-15.85-80.32l-4.62,1.92Zm-54.04-89.49c-20.19-19.23-43.17-34.56-68-45.59l-1.92,4.62c24.24,10.78,46.66,25.74,66.38,44.5l3.54-3.54Zm8.48,8.49l-3.54,3.54c18.76,19.72,33.72,42.15,44.5,66.38l4.62-1.92c-11.03-24.83-26.35-47.81-45.59-68Zm-87.58-58.66c-25.36-9.76-52.44-15.17-80.32-15.85v5c27.21.68,53.65,5.96,78.41,15.47l1.92-4.62Z"/>
        <path class="cls-3" d="m88.64,424.77c-17.84-19.05-32.28-40.58-42.96-64.07l.93-.38c10.63,23.37,25,44.8,42.74,63.75l-.71.71Zm347-.71c17.74-18.95,32.11-40.38,42.74-63.75l.93.38c-10.68,23.49-25.12,45.03-42.96,64.07l-.71-.71ZM39.56,345.92c-9.06-24.16-14.08-49.6-14.93-75.69h1c.85,25.94,5.85,51.26,14.86,75.3l-.93.38Zm444.95-.38c9.01-24.04,14-49.35,14.86-75.3h1c-.85,26.08-5.87,51.52-14.93,75.68l-.93-.38Zm14.86-91.3c-.85-25.94-5.85-51.26-14.86-75.3l.93-.38c9.06,24.16,14.08,49.6,14.93,75.68h-1Zm-474.74,0c.85-26.08,5.87-51.52,14.93-75.68l.93.38c-9.01,24.04-14,49.36-14.86,75.3h-1Zm21.05-90.47c10.68-23.49,25.12-45.03,42.96-64.08l.71.71c-17.74,18.95-32.11,40.38-42.74,63.75l-.93-.38Zm432.7.38c-10.63-23.37-25-44.8-42.74-63.75l.71-.71c17.84,19.05,32.28,40.58,42.96,64.07l-.93.38Zm-54.05-75.06c-18.95-17.74-40.38-32.11-63.75-42.74l.38-.93c23.49,10.68,45.03,25.12,64.08,42.96l-.71.71Zm-324.38-.71c19.05-17.84,40.58-32.28,64.08-42.96l.38.93c-23.37,10.63-44.8,25-63.75,42.74l-.71-.71Zm245.84-48.15c-24.04-9.01-49.36-14-75.3-14.86v-1c26.08.85,51.52,5.87,75.68,14.93l-.38.93Zm-166.98-.93c24.16-9.06,49.6-14.08,75.68-14.93v1c-25.94.85-51.26,5.85-75.3,14.86l-.38-.93Z"/>
      </g>
      <text class="cls-8" transform="translate(231.1 420.99)"><tspan x="0" y="0">MPH</tspan></text>
      <text class="cls-8" transform="translate(125.39 397.36)"><tspan x="0" y="0">0</tspan></text>
      <text class="cls-8" transform="translate(81.27 339.92)"><tspan x="0" y="0">10</tspan></text>
      <text class="cls-8" transform="translate(70.69 268.98)"><tspan x="0" y="0">20</tspan></text>
      <text class="cls-8" transform="translate(83.42 198.52)"><tspan x="0" y="0">30</tspan></text>
      <text class="cls-8" transform="translate(120.21 142.12)"><tspan x="0" y="0">40</tspan></text>
      <text class="cls-8" transform="translate(175.99 105.73)"><tspan x="0" y="0">50</tspan></text>
      <text class="cls-8" transform="translate(246.48 95.04)"><tspan x="0" y="0">60</tspan></text>
      <text class="cls-8" transform="translate(316.38 105.73)"><tspan x="0" y="0">70</tspan></text>
      <text class="cls-8" transform="translate(372.17 146.35)"><tspan x="0" y="0">80</tspan></text>
      <text class="cls-8" transform="translate(407.43 196.4)"><tspan x="0" y="0">90</tspan></text>
      <text class="cls-8" transform="translate(407.43 268.98)"><tspan x="0" y="0">100</tspan></text>
      <text class="cls-8" transform="translate(392.76 339.92)"><tspan x="0" y="0">110</tspan></text>
      <text class="cls-8" transform="translate(354.48 399.37)"><tspan x="0" y="0">120</tspan></text>
    </g>
  </g>
</svg>