<?xml version="1.0" encoding="UTF-8"?>
<svg id="Layer_2" data-name="Layer 2" xmlns="http://www.w3.org/2000/svg" xmlns:xlink="http://www.w3.org/1999/xlink" viewBox="0 0 400 400">
  <defs>
    <style>
      .cls-1 {
        fill: url(#linear-gradient);
      }

      .cls-1, .cls-2, .cls-3, .cls-4, .cls-5, .cls-6 {
        stroke-width: 0px;
      }

      .cls-7 {
        font-size: 40.94px;
        letter-spacing: -.02em;
      }

      .cls-7, .cls-8 {
        font-family: Rockwell, Rockwell;
      }

      .cls-3 {
        fill: red;
      }

      .cls-8 {
        font-size: 41.84px;
        letter-spacing: -.02em;
      }

      .cls-4 {
        fill: #fff;
      }

      .cls-5 {
        fill: url(#Chrome_bezel);
      }

      .cls-6 {
        fill: url(#Steel_Radial);
      }
    </style>
    <linearGradient id="Chrome_bezel" data-name="Chrome bezel" x1="0" y1="200" x2="400" y2="200" gradientUnits="userSpaceOnUse">
      <stop offset="0" stop-color="#e5e2df"/>
      <stop offset="0" stop-color="#d6d6d6"/>
      <stop offset="0" stop-color="#d1d3d4"/>
      <stop offset=".09" stop-color="#b6b7b8"/>
      <stop offset=".18" stop-color="#999"/>
      <stop offset=".26" stop-color="#adaeae"/>
      <stop offset=".36" stop-color="#d1d3d4"/>
      <stop offset=".51" stop-color="#858688"/>
      <stop offset=".6" stop-color="#58595b"/>
      <stop offset=".64" stop-color="#636466"/>
      <stop offset=".76" stop-color="#808285"/>
      <stop offset=".78" stop-color="#a1a3a5"/>
      <stop offset=".8" stop-color="#c3c4c5"/>
      <stop offset=".83" stop-color="#dddede"/>
      <stop offset=".85" stop-color="#f0f0f0"/>
      <stop offset=".87" stop-color="#fbfbfb"/>
      <stop offset=".9" stop-color="#fff"/>
      <stop offset=".91" stop-color="#eaeaeb"/>
      <stop offset=".93" stop-color="#d0d1d3"/>
      <stop offset=".96" stop-color="#bdbfc1"/>
      <stop offset=".98" stop-color="#b2b4b7"/>
      <stop offset="1" stop-color="#afb1b4"/>
    </linearGradient>
    <linearGradient id="linear-gradient" x1="200" y1="383.55" x2="200" y2="16.45" gradientUnits="userSpaceOnUse">
      <stop offset="0" stop-color="#e5e2df"/>
      <stop offset="0" stop-color="#d6d6d6"/>
      <stop offset="0" stop-color="#d1d3d4"/>
      <stop offset=".09" stop-color="#b6b7b8"/>
      <stop offset=".18" stop-color="#999"/>
      <stop offset=".26" stop-color="#adaeae"/>
      <stop offset=".36" stop-color="#d1d3d4"/>
      <stop offset=".51" stop-color="#858688"/>
      <stop offset=".6" stop-color="#58595b"/>
      <stop offset=".64" stop-color="#636466"/>
      <stop offset=".76" stop-color="#808285"/>
      <stop offset=".78" stop-color="#a1a3a5"/>
      <stop offset=".8" stop-color="#c3c4c5"/>
      <stop offset=".83" stop-color="#dddede"/>
      <stop offset=".85" stop-color="#f0f0f0"/>
      <stop offset=".87" stop-color="#fbfbfb"/>
      <stop offset=".9" stop-color="#fff"/>
      <stop offset=".91" stop-color="#eaeaeb"/>
      <stop offset=".93" stop-color="#d0d1d3"/>
      <stop offset=".96" stop-color="#bdbfc1"/>
      <stop offset=".98" stop-color="#b2b4b7"/>
      <stop offset="1" stop-color="#afb1b4"/>
    </linearGradient>
    <radialGradient id="Steel_Radial" data-name="Steel Radial" cx="200" cy="200" fx="200" fy="200" r="168.03" gradientUnits="userSpaceOnUse">
      <stop offset="0" stop-color="#e5e2df"/>
      <stop offset="0" stop-color="#f1efed"/>
      <stop offset="0" stop-color="#fff"/>
      <stop offset=".13" stop-color="#f0f0f0"/>
      <stop offset=".37" stop-color="#c9cacb"/>
      <stop offset=".52" stop-color="#adaeb0"/>
      <stop offset=".6" stop-color="#a3a5a7"/>
      <stop offset=".74" stop-color="#898d8f"/>
      <stop offset=".91" stop-color="#5e6669"/>
      <stop offset="1" stop-color="#465053"/>
    </radialGradient>
  </defs>
  <g id="Fuel_white" data-name="Fuel white">
    <circle id="Gauge_recess" data-name="Gauge recess" class="cls-5" cx="200" cy="200" r="200"/>
    <circle id="Face_inner_shade" data-name="Face inner shade" class="cls-4" cx="200" cy="200" r="165"/>
    <g id="Outer_bezel" data-name="Outer bezel">
      <path class="cls-1" d="M200,31.45c93.09,0,168.55,75.46,168.55,168.55,0,93.09-75.46,168.55-168.55,168.55-93.09,0-168.55-75.46-168.55-168.55,0-93.09,75.46-168.55,168.55-168.55M200,16.45s0,0,0,0h0c-24.77,0-48.81,4.86-71.45,14.43-21.86,9.25-41.49,22.48-58.34,39.33-16.85,16.85-30.09,36.48-39.33,58.34-9.58,22.64-14.43,46.68-14.43,71.45,0,24.77,4.86,48.81,14.43,71.45,9.25,21.86,22.48,41.49,39.33,58.34,16.85,16.85,36.48,30.09,58.34,39.33,22.64,9.58,46.68,14.43,71.45,14.43h0s0,0,0,0c24.77,0,48.81-4.86,71.45-14.43,21.86-9.25,41.49-22.48,58.34-39.33,16.85-16.85,30.09-36.48,39.33-58.34,9.58-22.64,14.43-46.68,14.43-71.45s-4.86-48.81-14.43-71.45c-9.25-21.86-22.48-41.49-39.33-58.34-16.85-16.85-36.48-30.09-58.34-39.33-22.64-9.58-46.68-14.43-71.45-14.43h0Z"/>
    </g>
    <g id="Inner_bezel" data-name="Inner bezel">
      <path class="cls-6" d="M200,36.97c90.04,0,163.03,72.99,163.03,163.03,0,90.04-72.99,163.03-163.03,163.03-90.04,0-163.03-72.99-163.03-163.03,0-90.04,72.99-163.03,163.03-163.03M200,31.97s0,0,0,0h0,0c-44.88,0-87.08,17.48-118.81,49.21s-49.21,73.93-49.21,118.81,17.48,87.07,49.22,118.81c31.74,31.74,73.93,49.21,118.81,49.22h0s0,0,0,0c44.88,0,87.08-17.48,118.81-49.21,31.74-31.74,49.21-73.93,49.21-118.81,0-44.88-17.48-87.07-49.22-118.81-31.74-31.74-73.93-49.21-118.81-49.22h0Z"/>
    </g>
    <g id="Ring_and_ticks_copy_3" data-name="Ring and ticks copy 3">
      <path id="Red_ticks" data-name="Red ticks" class="cls-3" d="M61.35,170.22l-.66,3.25-14.36-2.91.66-3.25,14.36,2.91ZM53.37,136.44l-2.04,4.91,26.07,10.77,2.04-4.91-26.07-10.77ZM40.19,197.21v5.31s28.22,0,28.22,0v-5.31s-28.22,0-28.22,0Z"/>
      <path id="Red_ring" data-name="Red ring" class="cls-3" d="M53.87,143.83c-6.33,16.44-9.85,33.99-10.3,52.05h-3.33c.45-18.51,4.06-36.49,10.56-53.32l3.08,1.27Z"/>
      <path id="Black_ticks" data-name="Black ticks" class="cls-2" d="M228.22,46.58l3.27.63-2.8,14.34-3.27-.63,2.8-14.34ZM276.89,81.21l2.78,1.83,8.09-12.18-2.78-1.83-8.09,12.18ZM316.65,119.59l1.86,2.75,12.14-8.17-1.86-2.75-12.14,8.17ZM338.65,170.22l.66,3.25,14.36-2.91-.66-3.25-14.36,2.91ZM70.43,112.55l-1.84,2.77,12.22,8.06,1.84-2.77-12.22-8.06ZM115.02,69.03l-2.78,1.83,8.09,12.18,2.78-1.83-8.09-12.18ZM171.78,46.58l-3.27.63,2.8,14.34,3.27-.63-2.8-14.34ZM198.34,58.64h3.33s0-14.61,0-14.61h-3.33s0,14.61,0,14.61ZM141.3,51.65l-4.92,2.03,10.8,25.99,4.92-2.03-10.8-25.99ZM88.88,85.32l-3.77,3.76,19.95,19.89,3.77-3.76-19.95-19.89ZM331.59,197.21v5.31s28.22,0,28.22,0v-5.31s-28.22,0-28.22,0ZM320.56,147.2l2.04,4.91,26.07-10.77-2.04-4.91-26.07,10.77ZM291.17,105.21l3.77,3.76,19.95-19.89-3.77-3.76-19.95,19.89ZM247.9,77.64l4.92,2.03,10.8-25.99-4.92-2.03-10.8,25.99ZM197.34,68.67h5.33s0-28.13,0-28.13h-5.33s0,28.13,0,28.13Z"/>
      <path id="Black_ring" data-name="Black ring" class="cls-2" d="M264.86,54.15c16.54,7.32,31.84,17.5,45.28,30.26l-2.36,2.35c-13.13-12.46-28.06-22.38-44.2-29.54l1.28-3.07ZM346.15,135.2c-7.35-16.49-17.55-31.74-30.36-45.15l-2.36,2.35c12.49,13.09,22.45,27.98,29.63,44.07l3.08-1.27ZM204,43.9c18.12.45,35.72,3.96,52.21,10.27l1.28-3.07c-16.89-6.48-34.92-10.07-53.48-10.52v3.32ZM359.76,195.88c-.45-18.51-4.06-36.49-10.55-53.32l-3.08,1.27c6.33,16.44,9.85,33.99,10.3,52.05h3.33ZM92.21,86.77c13.13-12.46,28.06-22.38,44.2-29.54l-1.28-3.07c-16.54,7.32-31.84,17.5-45.28,30.26l2.36,2.35ZM53.85,135.2l3.08,1.27c7.18-16.09,17.14-30.98,29.63-44.07l-2.36-2.35c-12.81,13.41-23.01,28.66-30.36,45.15ZM143.8,54.18c16.49-6.32,34.09-9.82,52.21-10.27v-3.32c-18.56.45-36.6,4.04-53.48,10.52l1.28,3.07Z"/>
    </g>
    <g id="Text_symbol_copy_2" data-name="Text &amp;amp; symbol copy 2">
      <image id="Icon_black" data-name="Icon black" width="512" height="512" transform="translate(181.21 263.37) scale(.09 .11)" xlink:href="../../Images and PSDs/Fuel symbol black.png"/>
      <text class="cls-7" transform="translate(69.9 213.8) scale(.86 1)"><tspan x="0" y="0">E</tspan></text>
      <text class="cls-8" transform="translate(306.25 215.16) scale(.95 1)"><tspan x="0" y="0">F</tspan></text>
    </g>
  </g>
</svg>