<?xml version="1.0" encoding="UTF-8"?>
<svg xmlns="http://www.w3.org/2000/svg" xmlns:xlink="http://www.w3.org/1999/xlink" viewBox="0 0 620 620">
  <defs>
    <style>
      .cls-1 {
        fill: #00a8e9;
      }

      .cls-1, .cls-2, .cls-3, .cls-4, .cls-5, .cls-6, .cls-7, .cls-8, .cls-9 {
        stroke-width: 0px;
      }

      .cls-10 {
        isolation: isolate;
      }

      .cls-2 {
        mix-blend-mode: multiply;
        opacity: .9;
      }

      .cls-3 {
        fill: url(#Chrome_bezel-2);
      }

      .cls-4 {
        fill: red;
      }

      .cls-11 {
        font-size: 51.55px;
      }

      .cls-11, .cls-12, .cls-13, .cls-14, .cls-15 {
        fill: #fff;
      }

      .cls-11, .cls-12, .cls-14, .cls-15 {
        font-family: Rockwell, Rockwell;
      }

      .cls-5 {
        opacity: .2;
      }

      .cls-12 {
        font-size: 55.37px;
      }

      .cls-6 {
        fill: url(#Chrome_bezel);
      }

      .cls-7 {
        fill: url(#radial-gradient);
      }

      .cls-13 {
        font-family: GillSansMT, 'Gill Sans MT';
        font-size: 51.08px;
      }

      .cls-14 {
        font-size: 31.29px;
      }

      .cls-8 {
        fill: #001735;
      }

      .cls-9 {
        fill: url(#Steel_Radial);
      }

      .cls-15 {
        font-size: 49.79px;
        letter-spacing: -.02em;
      }
    </style>
    <linearGradient id="Chrome_bezel" data-name="Chrome bezel" x1="10.69" y1="310" x2="609.31" y2="310" gradientUnits="userSpaceOnUse">
      <stop offset="0" stop-color="#e5e2df"/>
      <stop offset="0" stop-color="#d6d6d6"/>
      <stop offset="0" stop-color="#d1d3d4"/>
      <stop offset=".09" stop-color="#b6b7b8"/>
      <stop offset=".18" stop-color="#999"/>
      <stop offset=".26" stop-color="#adaeae"/>
      <stop offset=".36" stop-color="#d1d3d4"/>
      <stop offset=".51" stop-color="#858688"/>
      <stop offset=".6" stop-color="#58595b"/>
      <stop offset=".64" stop-color="#636466"/>
      <stop offset=".76" stop-color="#808285"/>
      <stop offset=".78" stop-color="#a1a3a5"/>
      <stop offset=".8" stop-color="#c3c4c5"/>
      <stop offset=".83" stop-color="#dddede"/>
      <stop offset=".85" stop-color="#f0f0f0"/>
      <stop offset=".87" stop-color="#fbfbfb"/>
      <stop offset=".9" stop-color="#fff"/>
      <stop offset=".91" stop-color="#eaeaeb"/>
      <stop offset=".93" stop-color="#d0d1d3"/>
      <stop offset=".96" stop-color="#bdbfc1"/>
      <stop offset=".98" stop-color="#b2b4b7"/>
      <stop offset="1" stop-color="#afb1b4"/>
    </linearGradient>
    <radialGradient id="radial-gradient" cx="310.03" cy="310.02" fx="310.03" fy="310.02" r="258.62" gradientTransform="translate(-10.36 -10.36) scale(1.03)" gradientUnits="userSpaceOnUse">
      <stop offset=".1" stop-color="#22202c" stop-opacity="0"/>
      <stop offset="1" stop-color="#04020e"/>
    </radialGradient>
    <linearGradient id="Chrome_bezel-2" data-name="Chrome bezel" x1="310" y1="589.57" x2="310" y2="30.43" xlink:href="#Chrome_bezel"/>
    <radialGradient id="Steel_Radial" data-name="Steel Radial" cx="310" cy="310" fx="310" fy="310" r="264.22" gradientUnits="userSpaceOnUse">
      <stop offset="0" stop-color="#e5e2df"/>
      <stop offset="0" stop-color="#f1efed"/>
      <stop offset="0" stop-color="#fff"/>
      <stop offset=".13" stop-color="#f0f0f0"/>
      <stop offset=".37" stop-color="#c9cacb"/>
      <stop offset=".52" stop-color="#adaeb0"/>
      <stop offset=".6" stop-color="#a3a5a7"/>
      <stop offset=".74" stop-color="#898d8f"/>
      <stop offset=".91" stop-color="#5e6669"/>
      <stop offset="1" stop-color="#465053"/>
    </radialGradient>
  </defs>
  <g class="cls-10">
    <g id="Layer_2" data-name="Layer 2">
      <g id="Tachometer">
        <circle id="Gauge_recess" data-name="Gauge recess" class="cls-6" cx="310" cy="310" r="299.31"/>
        <g id="Shadow">
          <circle class="cls-2" cx="310" cy="310" r="310"/>
        </g>
        <g id="Face_front_w_glow" data-name="Face front w/glow">
          <circle class="cls-8" cx="310" cy="310" r="267.24"/>
          <circle class="cls-5" cx="310" cy="310" r="267.24"/>
        </g>
        <circle id="Face_inner_shade" data-name="Face inner shade" class="cls-7" cx="310" cy="310" r="267.24"/>
        <g id="Outer_bezel" data-name="Outer bezel">
          <path class="cls-3" d="M310,45.43c146.12,0,264.57,118.45,264.57,264.57,0,146.12-118.45,264.57-264.57,264.57-146.12,0-264.57-118.45-264.57-264.57,0-146.12,118.45-264.57,264.57-264.57M310,30.43s0,0,0,0h0c-37.74,0-74.35,7.39-108.82,21.98-33.29,14.08-63.19,34.24-88.86,59.91-25.67,25.67-45.83,55.57-59.91,88.86-14.58,34.48-21.98,71.09-21.98,108.83,0,37.73,7.39,74.35,21.98,108.82,14.08,33.29,34.24,63.19,59.91,88.86,25.67,25.67,55.57,45.83,88.86,59.91,34.47,14.58,71.09,21.98,108.82,21.98h0s0,0,0,0c37.74,0,74.35-7.39,108.83-21.98,33.29-14.08,63.19-34.24,88.86-59.91,25.67-25.67,45.83-55.57,59.91-88.86,14.58-34.48,21.98-71.09,21.98-108.83,0-37.73-7.39-74.35-21.98-108.82-14.08-33.29-34.24-63.19-59.91-88.86-25.67-25.67-55.57-45.83-88.86-59.91-34.47-14.58-71.09-21.98-108.82-21.98h0Z"/>
        </g>
        <g id="Inner_bezel" data-name="Inner bezel">
          <path class="cls-9" d="M310,50.78c143.17,0,259.22,116.06,259.22,259.22,0,143.17-116.06,259.22-259.22,259.22-143.17,0-259.22-116.06-259.22-259.22,0-143.17,116.06-259.22,259.22-259.22M310,45.78s0,0,0,0c0,0,0,0,0,0h0c-35.67,0-70.27,6.99-102.85,20.77-31.46,13.31-59.72,32.36-83.99,56.62-24.26,24.26-43.32,52.52-56.62,83.99-13.78,32.58-20.77,67.18-20.77,102.85s6.99,70.27,20.77,102.85c13.31,31.46,32.36,59.72,56.63,83.99,24.27,24.26,52.52,43.32,83.99,56.63,32.58,13.78,67.18,20.77,102.84,20.77h0s0,0,0,0c35.67,0,70.27-6.99,102.85-20.77,31.46-13.31,59.72-32.36,83.99-56.62,24.26-24.26,43.32-52.52,56.62-83.99,13.78-32.58,20.77-67.18,20.77-102.85s-6.99-70.27-20.77-102.85c-13.31-31.46-32.36-59.72-56.63-83.99-24.27-24.26-52.52-43.32-83.99-56.63-32.58-13.78-67.18-20.77-102.84-20.77h0Z"/>
        </g>
        <g id="Ring_and_ticks" data-name="Ring and ticks">
          <rect class="cls-4" x="518.38" y="196.24" width="21.38" height="4.28" transform="translate(-32.4 261.84) rotate(-27)"/>
          <rect class="cls-4" x="523.92" y="207.86" width="21.38" height="4.28" transform="translate(-39.2 235.6) rotate(-24)"/>
          <rect class="cls-4" x="528.84" y="219.75" width="21.38" height="4.28" transform="translate(-43.68 208.1) rotate(-21)"/>
          <rect class="cls-4" x="533.14" y="231.89" width="21.38" height="4.28" transform="translate(-45.7 179.52) rotate(-18)"/>
          <rect class="cls-4" x="536.8" y="244.23" width="21.38" height="4.28" transform="translate(-45.11 150.09) rotate(-15)"/>
          <rect class="cls-4" x="539.8" y="256.74" width="21.38" height="4.28" transform="translate(-41.81 120.17) rotate(-12.01)"/>
          <rect class="cls-4" x="542.14" y="269.4" width="21.38" height="4.28" transform="translate(-35.64 89.71) rotate(-8.99)"/>
          <rect class="cls-4" x="543.83" y="282.16" width="21.38" height="4.28" transform="translate(-26.67 59.49) rotate(-6)"/>
          <rect class="cls-4" x="544.84" y="295" width="21.38" height="4.28" transform="translate(-14.77 29.43) rotate(-3)"/>
          <rect class="cls-4" x="553.39" y="312.18" width="4.28" height="21.38" transform="translate(204.02 860.73) rotate(-87)"/>
          <rect class="cls-4" x="552.38" y="325.01" width="4.28" height="21.38" transform="translate(162.69 852.08) rotate(-84)"/>
          <rect class="cls-4" x="550.7" y="337.77" width="4.28" height="21.38" transform="translate(122.2 840) rotate(-81)"/>
          <rect class="cls-4" x="548.35" y="350.43" width="4.28" height="21.38" transform="translate(82.81 824.5) rotate(-78)"/>
          <rect class="cls-4" x="545.35" y="362.94" width="4.28" height="21.38" transform="translate(44.89 805.77) rotate(-75)"/>
          <rect class="cls-4" x="541.69" y="375.29" width="4.28" height="21.38" transform="translate(8.69 783.91) rotate(-72)"/>
          <rect class="cls-4" x="537.39" y="387.42" width="4.28" height="21.38" transform="translate(-25.49 759.12) rotate(-69)"/>
          <rect class="cls-4" x="532.47" y="399.31" width="4.28" height="21.38" transform="translate(-57.4 731.62) rotate(-66)"/>
          <rect class="cls-4" x="526.93" y="410.93" width="4.28" height="21.38" transform="translate(-86.79 701.6) rotate(-63)"/>
          <rect class="cls-4" x="492.29" y="188.14" width="42.76" height="8.55" transform="translate(-27.39 282.63) rotate(-30)"/>
          <rect class="cls-4" x="523.79" y="305.72" width="42.76" height="8.55"/>
          <rect class="cls-4" x="509.39" y="406.21" width="8.55" height="42.76" transform="translate(-113.47 658.64) rotate(-60)"/>
          <path id="Red_ring" data-name="Red ring" class="cls-4" d="M535.41,187.26c4.33,7.94,8.26,16.1,11.74,24.51,12.07,29.13,18.56,59.98,19.32,91.82h-5.35c-.77-31.13-7.12-61.3-18.91-89.77-3.39-8.19-7.21-16.15-11.43-23.88l4.63-2.67ZM561.13,316.41c-.77,31.13-7.12,61.3-18.91,89.77-3.36,8.12-7.2,16.12-11.43,23.88l4.63,2.67c4.35-7.96,8.28-16.17,11.73-24.51,12.07-29.13,18.56-59.99,19.32-91.82h-5.35Z"/>
          <path id="Blue_ticks" data-name="Blue ticks" class="cls-1" d="M324.44,75.26l-4.27-.22,1.12-21.35,4.27.22-1.12,21.35ZM338.94,55.08l-4.25-.45-2.24,21.26,4.25.45,2.24-21.26ZM352.25,56.94l-4.22-.67-3.34,21.12,4.22.67,3.34-21.12ZM365.43,59.5l-4.18-.89-4.44,20.91,4.18.89,4.44-20.91ZM378.46,62.74l-4.13-1.11-5.53,20.65,4.13,1.11,5.53-20.65ZM391.31,66.67l-4.07-1.32-6.61,20.33,4.07,1.32,6.61-20.33ZM403.94,71.25l-3.99-1.53-7.66,19.96,3.99,1.53,7.66-19.96ZM416.3,76.5l-3.91-1.74-8.7,19.53,3.91,1.74,8.7-19.53ZM428.38,82.38l-3.81-1.94-9.71,19.05,3.81,1.94,9.71-19.05ZM451.52,96l-3.59-2.33-11.64,17.93,3.59,2.33,11.64-17.93ZM462.53,103.7l-3.46-2.51-12.57,17.3,3.46,2.51,12.57-17.3ZM473.12,111.97l-3.32-2.69-13.45,16.61,3.32,2.69,13.45-16.61ZM483.26,120.78l-3.18-2.86-14.31,15.89,3.18,2.86,14.31-15.89ZM492.92,130.1l-3.02-3.02-15.12,15.12,3.02,3.02,15.12-15.12ZM502.08,139.92l-2.86-3.18-15.89,14.31,2.86,3.18,15.89-14.31ZM510.72,150.21l-2.69-3.32-16.61,13.45,2.69,3.32,16.61-13.45ZM518.81,160.93l-2.51-3.46-17.3,12.57,2.51,3.46,17.3-12.57ZM526.33,172.06l-2.33-3.59-17.93,11.64,2.33,3.59,17.93-11.64ZM101.43,418.67l-1.94-3.81-19.05,9.71,1.94,3.81,19.05-9.71ZM96.03,407.61l-1.74-3.91-19.53,8.7,1.74,3.91,19.53-8.7ZM91.21,396.27l-1.53-3.99-19.96,7.66,1.53,3.99,19.96-7.66ZM87,384.71l-1.32-4.07-20.33,6.61,1.32,4.07,20.33-6.61ZM83.39,372.93l-1.11-4.13-20.65,5.53,1.11,4.13,20.65-5.53ZM80.41,360.99l-.89-4.18-20.91,4.44.89,4.18,20.91-4.44ZM78.06,348.9l-.67-4.22-21.12,3.34.67,4.22,21.12-3.34ZM76.34,336.71l-.45-4.25-21.26,2.24.45,4.25,21.26-2.24ZM75.26,324.44l-.22-4.27-21.35,1.12.22,4.27,21.35-1.12ZM75.26,295.56l-21.35-1.12-.22,4.27,21.35,1.12.22-4.27ZM76.34,283.29l-21.26-2.24-.45,4.25,21.26,2.24.45-4.25ZM78.06,271.1l-21.12-3.34-.67,4.22,21.12,3.34.67-4.22ZM80.41,259.01l-20.91-4.44-.89,4.18,20.91,4.44.89-4.18ZM83.39,247.07l-20.65-5.53-1.11,4.13,20.65,5.53,1.11-4.13ZM87,235.29l-20.33-6.61-1.32,4.07,20.33,6.61,1.32-4.07ZM91.21,223.73l-19.96-7.66-1.53,3.99,19.96,7.66,1.53-3.99ZM96.03,212.39l-19.53-8.7-1.74,3.91,19.53,8.7,1.74-3.91ZM101.43,201.33l-19.05-9.71-1.94,3.81,19.05,9.71,1.94-3.81ZM113.93,180.12l-17.93-11.64-2.33,3.59,17.93,11.64,2.33-3.59ZM121,170.04l-17.3-12.57-2.51,3.46,17.3,12.57,2.51-3.46ZM128.58,160.34l-16.61-13.45-2.69,3.32,16.61,13.45,2.69-3.32ZM136.66,151.05l-15.89-14.31-2.86,3.18,15.89,14.31,2.86-3.18ZM145.22,142.2l-15.12-15.12-3.02,3.02,15.12,15.12,3.02-3.02ZM154.23,133.8l-14.31-15.89-3.18,2.86,14.31,15.89,3.18-2.86ZM163.66,125.89l-13.45-16.61-3.32,2.69,13.45,16.61,3.32-2.69ZM173.5,118.48l-12.57-17.3-3.46,2.51,12.57,17.3,3.46-2.51ZM183.71,111.6l-11.64-17.93-3.59,2.33,11.64,17.93,3.59-2.33ZM205.14,99.49l-9.71-19.05-3.81,1.94,9.71,19.05,3.81-1.94ZM216.3,94.29l-8.7-19.53-3.91,1.74,8.7,19.53,3.91-1.74ZM227.72,89.68l-7.66-19.96-3.99,1.53,7.66,19.96,3.99-1.53ZM239.36,85.68l-6.61-20.33-4.07,1.32,6.61,20.33,4.07-1.32ZM251.2,82.29l-5.53-20.65-4.13,1.11,5.53,20.65,4.13-1.11ZM263.2,79.52l-4.44-20.91-4.18.89,4.44,20.91,4.18-.89ZM275.32,77.39l-3.34-21.12-4.22.67,3.34,21.12,4.22-.67ZM287.54,75.89l-2.24-21.26-4.25.45,2.24,21.26,4.25-.45ZM299.83,75.04l-1.12-21.35-4.27.22,1.12,21.35,4.27-.22ZM441.98,89.96l-7.41-4.28-21.38,37.03,7.41,4.28,21.38-37.03ZM126.99,420.6l-4.28-7.41-37.03,21.38,4.28,7.41,37.03-21.38ZM96.21,305.72h-42.76v8.55h42.76v-8.55ZM126.99,199.4l-37.03-21.38-4.28,7.41,37.03,21.38,4.28-7.41ZM206.81,122.71l-21.38-37.03-7.41,4.28,21.38,37.03,7.41-4.28ZM314.28,53.45h-8.55v42.76h8.55v-42.76Z"/>
          <path id="Blue_ring" data-name="Blue ring" class="cls-1" d="M53.53,303.59c.77-31.83,7.26-62.69,19.32-91.82,3.48-8.4,7.41-16.57,11.74-24.51l4.63,2.67c-4.21,7.73-8.04,15.69-11.43,23.88-11.8,28.48-18.15,58.65-18.91,89.77h-5.35ZM89.22,430.06c-4.23-7.76-8.06-15.75-11.43-23.88-11.8-28.48-18.15-58.65-18.91-89.77h-5.35c.77,31.83,7.26,62.69,19.32,91.82,3.45,8.34,7.39,16.55,11.74,24.5l4.63-2.67ZM176.16,91.01c-17.14,10.51-33.06,23.07-47.57,37.58-14.51,14.51-27.06,30.43-37.58,47.57l4.63,2.67c10.28-16.74,22.55-32.29,36.72-46.47,14.18-14.18,29.73-26.44,46.47-36.72l-2.67-4.63ZM528.99,176.16c-10.51-17.14-23.07-33.06-37.58-47.57-14.51-14.51-30.43-27.06-47.57-37.58l-2.67,4.63c16.74,10.28,32.29,22.55,46.47,36.72,14.18,14.18,26.44,29.73,36.73,46.47l4.63-2.67ZM432.74,84.59c-7.93-4.33-16.1-8.25-24.51-11.74-29.13-12.07-59.99-18.56-91.82-19.32v5.35c31.12.77,61.3,7.12,89.77,18.91,8.19,3.39,16.15,7.21,23.88,11.43l2.67-4.63ZM303.59,53.53c-31.83.77-62.69,7.26-91.82,19.32-8.4,3.48-16.57,7.41-24.51,11.74l2.67,4.63c7.73-4.21,15.69-8.04,23.88-11.43,28.48-11.8,58.65-18.15,89.77-18.91v-5.35Z"/>
        </g>
        <g id="Text">
          <text class="cls-14" transform="translate(272.5 512.33) scale(.88 1)"><tspan x="0" y="0">x1000</tspan></text>
          <text id="RPM" class="cls-15" transform="translate(261.39 485.51) scale(.98 1)"><tspan x="0" y="0">RPM</tspan></text>
          <text class="cls-13" transform="translate(127.5 424.82) scale(1.06 1)"><tspan x="0" y="0">0</tspan></text>
          <text class="cls-11" transform="translate(93.5 324.66) scale(.97 1)"><tspan x="0" y="0">1</tspan></text>
          <text class="cls-11" transform="translate(130.5 225.04) scale(.97 1)"><tspan x="0" y="0">2</tspan></text>
          <text class="cls-11" transform="translate(193.5 165.59) scale(.97 1)"><tspan x="0" y="0">3</tspan></text>
          <text class="cls-12" transform="translate(295.5 139.67) scale(.97 1)"><tspan x="0" y="0">4</tspan></text>
          <text class="cls-11" transform="translate(394.5 165.59) scale(.97 1)"><tspan x="0" y="0">5</tspan></text>
          <text class="cls-11" transform="translate(463.5 225.04) scale(.97 1)"><tspan x="0" y="0">6</tspan></text>
          <text class="cls-11" transform="translate(495.6 324.66) scale(.97 1)"><tspan x="0" y="0">7</tspan></text>
          <text class="cls-11" transform="translate(464.5 425.14) scale(.97 1)"><tspan x="0" y="0">8</tspan></text>
        </g>
      </g>
    </g>
  </g>
</svg>