<?xml version="1.0" encoding="UTF-8"?>
<svg id="Layer_2" data-name="Layer 2" xmlns="http://www.w3.org/2000/svg" xmlns:xlink="http://www.w3.org/1999/xlink" viewBox="0 0 600 600">
  <defs>
    <style>
      .cls-1 {
        font-family: GillSansMT, 'Gill Sans MT';
        font-size: 51.08px;
      }

      .cls-1, .cls-2, .cls-3, .cls-4, .cls-5, .cls-6 {
        fill: #e6e6e6;
      }

      .cls-2, .cls-7, .cls-8, .cls-9, .cls-10, .cls-11 {
        stroke-width: 0px;
      }

      .cls-3 {
        font-size: 31.29px;
      }

      .cls-3, .cls-4, .cls-5, .cls-6 {
        font-family: Rockwell, Rockwell;
      }

      .cls-8 {
        fill: url(#Chrome_bezel-2);
      }

      .cls-9 {
        fill: red;
      }

      .cls-4 {
        font-size: 51.55px;
      }

      .cls-5 {
        font-size: 49.79px;
        letter-spacing: -.02em;
      }

      .cls-10 {
        fill: url(#Chrome_bezel);
      }

      .cls-6 {
        font-size: 55.37px;
      }

      .cls-11 {
        fill: url(#Steel_Radial);
      }
    </style>
    <linearGradient id="Chrome_bezel" data-name="Chrome bezel" x1="0" y1="300" x2="600" y2="300" gradientUnits="userSpaceOnUse">
      <stop offset="0" stop-color="#e5e2df"/>
      <stop offset="0" stop-color="#d6d6d6"/>
      <stop offset="0" stop-color="#d1d3d4"/>
      <stop offset=".09" stop-color="#b6b7b8"/>
      <stop offset=".18" stop-color="#999"/>
      <stop offset=".26" stop-color="#adaeae"/>
      <stop offset=".36" stop-color="#d1d3d4"/>
      <stop offset=".51" stop-color="#858688"/>
      <stop offset=".6" stop-color="#58595b"/>
      <stop offset=".64" stop-color="#636466"/>
      <stop offset=".76" stop-color="#808285"/>
      <stop offset=".78" stop-color="#a1a3a5"/>
      <stop offset=".8" stop-color="#c3c4c5"/>
      <stop offset=".83" stop-color="#dddede"/>
      <stop offset=".85" stop-color="#f0f0f0"/>
      <stop offset=".87" stop-color="#fbfbfb"/>
      <stop offset=".9" stop-color="#fff"/>
      <stop offset=".91" stop-color="#eaeaeb"/>
      <stop offset=".93" stop-color="#d0d1d3"/>
      <stop offset=".96" stop-color="#bdbfc1"/>
      <stop offset=".98" stop-color="#b2b4b7"/>
      <stop offset="1" stop-color="#afb1b4"/>
    </linearGradient>
    <linearGradient id="Chrome_bezel-2" data-name="Chrome bezel" x1="300" y1="579.57" x2="300" y2="20.43" xlink:href="#Chrome_bezel"/>
    <radialGradient id="Steel_Radial" data-name="Steel Radial" cx="300" cy="300" fx="300" fy="300" r="264.22" gradientUnits="userSpaceOnUse">
      <stop offset="0" stop-color="#e5e2df"/>
      <stop offset="0" stop-color="#f1efed"/>
      <stop offset="0" stop-color="#fff"/>
      <stop offset=".13" stop-color="#f0f0f0"/>
      <stop offset=".37" stop-color="#c9cacb"/>
      <stop offset=".52" stop-color="#adaeb0"/>
      <stop offset=".6" stop-color="#a3a5a7"/>
      <stop offset=".74" stop-color="#898d8f"/>
      <stop offset=".91" stop-color="#5e6669"/>
      <stop offset="1" stop-color="#465053"/>
    </radialGradient>
  </defs>
  <g id="Tachometer_black" data-name="Tachometer black">
    <circle id="Gauge_recess" data-name="Gauge recess" class="cls-10" cx="300" cy="300" r="300"/>
    <circle id="Face_inner_shade" data-name="Face inner shade" class="cls-7" cx="300" cy="300" r="265"/>
    <g id="Outer_bezel" data-name="Outer bezel">
      <path class="cls-8" d="M300,35.43c146.12,0,264.57,118.45,264.57,264.57,0,146.12-118.45,264.57-264.57,264.57-146.12,0-264.57-118.45-264.57-264.57,0-146.12,118.45-264.57,264.57-264.57M300,20.43s0,0,0,0h0c-37.74,0-74.35,7.39-108.82,21.98-33.29,14.08-63.19,34.24-88.86,59.91-25.67,25.67-45.83,55.57-59.91,88.86-14.58,34.48-21.98,71.09-21.98,108.83,0,37.73,7.39,74.35,21.98,108.82,14.08,33.29,34.24,63.19,59.91,88.86,25.67,25.67,55.57,45.83,88.86,59.91,34.47,14.58,71.09,21.98,108.82,21.98h0s0,0,0,0c37.74,0,74.35-7.39,108.83-21.98,33.29-14.08,63.19-34.24,88.86-59.91,25.67-25.67,45.83-55.57,59.91-88.86,14.58-34.48,21.98-71.09,21.98-108.83,0-37.73-7.39-74.35-21.98-108.82-14.08-33.29-34.24-63.19-59.91-88.86-25.67-25.67-55.57-45.83-88.86-59.91-34.47-14.58-71.09-21.98-108.82-21.98h0Z"/>
    </g>
    <g id="Inner_bezel" data-name="Inner bezel">
      <path class="cls-11" d="M300,40.78c143.17,0,259.22,116.06,259.22,259.22,0,143.17-116.06,259.22-259.22,259.22-143.17,0-259.22-116.06-259.22-259.22,0-143.17,116.06-259.22,259.22-259.22M300,35.78s0,0,0,0c0,0,0,0,0,0h0c-35.67,0-70.27,6.99-102.85,20.77-31.46,13.31-59.72,32.36-83.99,56.62-24.26,24.26-43.32,52.52-56.62,83.99-13.78,32.58-20.77,67.18-20.77,102.85s6.99,70.27,20.77,102.85c13.31,31.46,32.36,59.72,56.63,83.99,24.27,24.26,52.52,43.32,83.99,56.63,32.58,13.78,67.18,20.77,102.84,20.77h0s0,0,0,0c35.67,0,70.27-6.99,102.85-20.77,31.46-13.31,59.72-32.36,83.99-56.62,24.26-24.26,43.32-52.52,56.62-83.99,13.78-32.58,20.77-67.18,20.77-102.85s-6.99-70.27-20.77-102.85c-13.31-31.46-32.36-59.72-56.63-83.99-24.27-24.26-52.52-43.32-83.99-56.63-32.58-13.78-67.18-20.77-102.84-20.77h0Z"/>
    </g>
    <g id="Ring_and_ticks" data-name="Ring and ticks">
      <rect class="cls-9" x="508.38" y="186.24" width="21.38" height="4.28" transform="translate(-28.95 256.21) rotate(-27)"/>
      <rect class="cls-9" x="513.92" y="197.86" width="21.38" height="4.28" transform="translate(-35.99 230.66) rotate(-24)"/>
      <rect class="cls-9" x="518.84" y="209.75" width="21.38" height="4.28" transform="translate(-40.76 203.85) rotate(-21)"/>
      <rect class="cls-9" x="523.14" y="221.89" width="21.38" height="4.28" transform="translate(-43.1 175.94) rotate(-18)"/>
      <rect class="cls-9" x="526.8" y="234.23" width="21.38" height="4.28" transform="translate(-42.86 147.16) rotate(-15)"/>
      <rect class="cls-9" x="529.8" y="246.74" width="21.38" height="4.28" transform="translate(-39.95 117.87) rotate(-12.01)"/>
      <rect class="cls-9" x="532.14" y="259.4" width="21.38" height="4.28" transform="translate(-34.2 88.02) rotate(-8.99)"/>
      <rect class="cls-9" x="533.83" y="272.16" width="21.38" height="4.28" transform="translate(-25.68 58.39) rotate(-6)"/>
      <rect class="cls-9" x="534.84" y="285" width="21.38" height="4.28" transform="translate(-14.26 28.9) rotate(-3)"/>
      <rect class="cls-9" x="543.39" y="302.18" width="4.28" height="21.38" transform="translate(204.53 841.27) rotate(-87)"/>
      <rect class="cls-9" x="542.38" y="315.01" width="4.28" height="21.38" transform="translate(163.68 833.18) rotate(-84)"/>
      <rect class="cls-9" x="540.7" y="327.77" width="4.28" height="21.38" transform="translate(123.64 821.68) rotate(-81)"/>
      <rect class="cls-9" x="538.35" y="340.43" width="4.28" height="21.38" transform="translate(84.67 806.8) rotate(-78)"/>
      <rect class="cls-9" x="535.35" y="352.94" width="4.28" height="21.38" transform="translate(47.14 788.7) rotate(-75)"/>
      <rect class="cls-9" x="531.69" y="365.29" width="4.28" height="21.38" transform="translate(11.29 767.49) rotate(-72)"/>
      <rect class="cls-9" x="527.39" y="377.42" width="4.28" height="21.38" transform="translate(-22.57 743.37) rotate(-69)"/>
      <rect class="cls-9" x="522.47" y="389.31" width="4.28" height="21.38" transform="translate(-54.19 716.55) rotate(-66)"/>
      <rect class="cls-9" x="516.93" y="400.93" width="4.28" height="21.38" transform="translate(-83.34 687.23) rotate(-63)"/>
      <rect class="cls-9" x="482.29" y="178.14" width="42.76" height="8.55" transform="translate(-23.73 276.29) rotate(-30)"/>
      <rect class="cls-9" x="513.79" y="295.72" width="42.76" height="8.55"/>
      <rect class="cls-9" x="499.39" y="396.21" width="8.55" height="42.76" transform="translate(-109.81 644.98) rotate(-60)"/>
      <path id="Red_ring" data-name="Red ring" class="cls-9" d="M525.41,177.26c4.33,7.94,8.26,16.1,11.74,24.51,12.07,29.13,18.56,59.98,19.32,91.82h-5.35c-.77-31.13-7.12-61.3-18.91-89.77-3.39-8.19-7.21-16.15-11.43-23.88l4.63-2.67ZM551.13,306.41c-.77,31.13-7.12,61.3-18.91,89.77-3.36,8.12-7.2,16.12-11.43,23.88l4.63,2.67c4.35-7.96,8.28-16.17,11.73-24.51,12.07-29.13,18.56-59.99,19.32-91.82h-5.35Z"/>
      <path id="Blue_ticks" data-name="Blue ticks" class="cls-2" d="M314.44,65.26l-4.27-.22,1.12-21.35,4.27.22-1.12,21.35ZM328.94,45.08l-4.25-.45-2.24,21.26,4.25.45,2.24-21.26ZM342.25,46.94l-4.22-.67-3.34,21.12,4.22.67,3.34-21.12ZM355.43,49.5l-4.18-.89-4.44,20.91,4.18.89,4.44-20.91ZM368.46,52.74l-4.13-1.11-5.53,20.65,4.13,1.11,5.53-20.65ZM381.31,56.67l-4.07-1.32-6.61,20.33,4.07,1.32,6.61-20.33ZM393.94,61.25l-3.99-1.53-7.66,19.96,3.99,1.53,7.66-19.96ZM406.3,66.5l-3.91-1.74-8.7,19.53,3.91,1.74,8.7-19.53ZM418.38,72.38l-3.81-1.94-9.71,19.05,3.81,1.94,9.71-19.05ZM441.52,86l-3.59-2.33-11.64,17.93,3.59,2.33,11.64-17.93ZM452.53,93.7l-3.46-2.51-12.57,17.3,3.46,2.51,12.57-17.3ZM463.12,101.97l-3.32-2.69-13.45,16.61,3.32,2.69,13.45-16.61ZM473.26,110.78l-3.18-2.86-14.31,15.89,3.18,2.86,14.31-15.89ZM482.92,120.1l-3.02-3.02-15.12,15.12,3.02,3.02,15.12-15.12ZM492.08,129.92l-2.86-3.18-15.89,14.31,2.86,3.18,15.89-14.31ZM500.72,140.21l-2.69-3.32-16.61,13.45,2.69,3.32,16.61-13.45ZM508.81,150.93l-2.51-3.46-17.3,12.57,2.51,3.46,17.3-12.57ZM516.33,162.06l-2.33-3.59-17.93,11.64,2.33,3.59,17.93-11.64ZM91.43,408.67l-1.94-3.81-19.05,9.71,1.94,3.81,19.05-9.71ZM86.03,397.61l-1.74-3.91-19.53,8.7,1.74,3.91,19.53-8.7ZM81.21,386.27l-1.53-3.99-19.96,7.66,1.53,3.99,19.96-7.66ZM77,374.71l-1.32-4.07-20.33,6.61,1.32,4.07,20.33-6.61ZM73.39,362.93l-1.11-4.13-20.65,5.53,1.11,4.13,20.65-5.53ZM70.41,350.99l-.89-4.18-20.91,4.44.89,4.18,20.91-4.44ZM68.06,338.9l-.67-4.22-21.12,3.34.67,4.22,21.12-3.34ZM66.34,326.71l-.45-4.25-21.26,2.24.45,4.25,21.26-2.24ZM65.26,314.44l-.22-4.27-21.35,1.12.22,4.27,21.35-1.12ZM65.26,285.56l-21.35-1.12-.22,4.27,21.35,1.12.22-4.27ZM66.34,273.29l-21.26-2.24-.45,4.25,21.26,2.24.45-4.25ZM68.06,261.1l-21.12-3.34-.67,4.22,21.12,3.34.67-4.22ZM70.41,249.01l-20.91-4.44-.89,4.18,20.91,4.44.89-4.18ZM73.39,237.07l-20.65-5.53-1.11,4.13,20.65,5.53,1.11-4.13ZM77,225.29l-20.33-6.61-1.32,4.07,20.33,6.61,1.32-4.07ZM81.21,213.73l-19.96-7.66-1.53,3.99,19.96,7.66,1.53-3.99ZM86.03,202.39l-19.53-8.7-1.74,3.91,19.53,8.7,1.74-3.91ZM91.43,191.33l-19.05-9.71-1.94,3.81,19.05,9.71,1.94-3.81ZM103.93,170.12l-17.93-11.64-2.33,3.59,17.93,11.64,2.33-3.59ZM111,160.04l-17.3-12.57-2.51,3.46,17.3,12.57,2.51-3.46ZM118.58,150.34l-16.61-13.45-2.69,3.32,16.61,13.45,2.69-3.32ZM126.66,141.05l-15.89-14.31-2.86,3.18,15.89,14.31,2.86-3.18ZM135.22,132.2l-15.12-15.12-3.02,3.02,15.12,15.12,3.02-3.02ZM144.23,123.8l-14.31-15.89-3.18,2.86,14.31,15.89,3.18-2.86ZM153.66,115.89l-13.45-16.61-3.32,2.69,13.45,16.61,3.32-2.69ZM163.5,108.48l-12.57-17.3-3.46,2.51,12.57,17.3,3.46-2.51ZM173.71,101.6l-11.64-17.93-3.59,2.33,11.64,17.93,3.59-2.33ZM195.14,89.49l-9.71-19.05-3.81,1.94,9.71,19.05,3.81-1.94ZM206.3,84.29l-8.7-19.53-3.91,1.74,8.7,19.53,3.91-1.74ZM217.72,79.68l-7.66-19.96-3.99,1.53,7.66,19.96,3.99-1.53ZM229.36,75.68l-6.61-20.33-4.07,1.32,6.61,20.33,4.07-1.32ZM241.2,72.29l-5.53-20.65-4.13,1.11,5.53,20.65,4.13-1.11ZM253.2,69.52l-4.44-20.91-4.18.89,4.44,20.91,4.18-.89ZM265.32,67.39l-3.34-21.12-4.22.67,3.34,21.12,4.22-.67ZM277.54,65.89l-2.24-21.26-4.25.45,2.24,21.26,4.25-.45ZM289.83,65.04l-1.12-21.35-4.27.22,1.12,21.35,4.27-.22ZM431.98,79.96l-7.41-4.28-21.38,37.03,7.41,4.28,21.38-37.03ZM116.99,410.6l-4.28-7.41-37.03,21.38,4.28,7.41,37.03-21.38ZM86.21,295.72h-42.76v8.55h42.76v-8.55ZM116.99,189.4l-37.03-21.38-4.28,7.41,37.03,21.38,4.28-7.41ZM196.81,112.71l-21.38-37.03-7.41,4.28,21.38,37.03,7.41-4.28ZM304.28,43.45h-8.55v42.76h8.55v-42.76Z"/>
      <path id="Blue_ring" data-name="Blue ring" class="cls-2" d="M43.53,293.59c.77-31.83,7.26-62.69,19.32-91.82,3.48-8.4,7.41-16.57,11.74-24.51l4.63,2.67c-4.21,7.73-8.04,15.69-11.43,23.88-11.8,28.48-18.15,58.65-18.91,89.77h-5.35ZM79.22,420.06c-4.23-7.76-8.06-15.75-11.43-23.88-11.8-28.48-18.15-58.65-18.91-89.77h-5.35c.77,31.83,7.26,62.69,19.32,91.82,3.45,8.34,7.39,16.55,11.74,24.5l4.63-2.67ZM166.16,81.01c-17.14,10.51-33.06,23.07-47.57,37.58-14.51,14.51-27.06,30.43-37.58,47.57l4.63,2.67c10.28-16.74,22.55-32.29,36.72-46.47,14.18-14.18,29.73-26.44,46.47-36.72l-2.67-4.63ZM518.99,166.16c-10.51-17.14-23.07-33.06-37.58-47.57-14.51-14.51-30.43-27.06-47.57-37.58l-2.67,4.63c16.74,10.28,32.29,22.55,46.47,36.72,14.18,14.18,26.44,29.73,36.73,46.47l4.63-2.67ZM422.74,74.59c-7.93-4.33-16.1-8.25-24.51-11.74-29.13-12.07-59.99-18.56-91.82-19.32v5.35c31.12.77,61.3,7.12,89.77,18.91,8.19,3.39,16.15,7.21,23.88,11.43l2.67-4.63ZM293.59,43.53c-31.83.77-62.69,7.26-91.82,19.32-8.4,3.48-16.57,7.41-24.51,11.74l2.67,4.63c7.73-4.21,15.69-8.04,23.88-11.43,28.48-11.8,58.65-18.15,89.77-18.91v-5.35Z"/>
    </g>
    <g id="Text">
      <text class="cls-3" transform="translate(262.5 501.86) scale(.88 1)"><tspan x="0" y="0">x1000</tspan></text>
      <text id="RPM" class="cls-5" transform="translate(251 475.09) scale(.98 1)"><tspan x="0" y="0">RPM</tspan></text>
      <text class="cls-1" transform="translate(117.5 414.82) scale(1.06 1)"><tspan x="0" y="0">0</tspan></text>
      <text class="cls-4" transform="translate(83.5 314.66) scale(.97 1)"><tspan x="0" y="0">1</tspan></text>
      <text class="cls-4" transform="translate(120.5 215.04) scale(.97 1)"><tspan x="0" y="0">2</tspan></text>
      <text class="cls-4" transform="translate(183.5 155.59) scale(.97 1)"><tspan x="0" y="0">3</tspan></text>
      <text class="cls-6" transform="translate(285.5 129.67) scale(.97 1)"><tspan x="0" y="0">4</tspan></text>
      <text class="cls-4" transform="translate(384.5 155.59) scale(.97 1)"><tspan x="0" y="0">5</tspan></text>
      <text class="cls-4" transform="translate(453.5 215.04) scale(.97 1)"><tspan x="0" y="0">6</tspan></text>
      <text class="cls-4" transform="translate(485.6 314.66) scale(.97 1)"><tspan x="0" y="0">7</tspan></text>
      <text class="cls-4" transform="translate(454.5 415.14) scale(.97 1)"><tspan x="0" y="0">8</tspan></text>
    </g>
  </g>
</svg>